<mxfile host="app.diagrams.net" agent="Mozilla/5.0 (Windows NT 10.0; Win64; x64) AppleWebKit/537.36 (KHTML, like Gecko) Chrome/130.0.0.0 Safari/537.36 OPR/115.0.0.0" version="26.0.8">
  <diagram name="PÃ¡gina-1" id="PcgyB9ujH2yEgpmmBn1u">
    <mxGraphModel dx="1390" dy="761" grid="1" gridSize="10" guides="1" tooltips="1" connect="1" arrows="1" fold="1" page="1" pageScale="1" pageWidth="827" pageHeight="1169" math="0" shadow="0">
      <root>
        <mxCell id="0" />
        <mxCell id="1" parent="0" />
        <mxCell id="6P_JWeLP0QCUFUXHFIDF-5" style="edgeStyle=orthogonalEdgeStyle;rounded=0;orthogonalLoop=1;jettySize=auto;html=1;entryX=0.5;entryY=0;entryDx=0;entryDy=0;" edge="1" parent="1" source="6P_JWeLP0QCUFUXHFIDF-1" target="6P_JWeLP0QCUFUXHFIDF-4">
          <mxGeometry relative="1" as="geometry" />
        </mxCell>
        <mxCell id="6P_JWeLP0QCUFUXHFIDF-1" value="INICIO" style="strokeWidth=2;html=1;shape=mxgraph.flowchart.start_1;whiteSpace=wrap;" vertex="1" parent="1">
          <mxGeometry x="364" y="40" width="100" height="60" as="geometry" />
        </mxCell>
        <mxCell id="6P_JWeLP0QCUFUXHFIDF-2" value="FIM" style="strokeWidth=2;html=1;shape=mxgraph.flowchart.start_1;whiteSpace=wrap;" vertex="1" parent="1">
          <mxGeometry x="352" y="920" width="100" height="60" as="geometry" />
        </mxCell>
        <mxCell id="6P_JWeLP0QCUFUXHFIDF-22" style="edgeStyle=orthogonalEdgeStyle;rounded=0;orthogonalLoop=1;jettySize=auto;html=1;" edge="1" parent="1" source="6P_JWeLP0QCUFUXHFIDF-3" target="6P_JWeLP0QCUFUXHFIDF-11">
          <mxGeometry relative="1" as="geometry">
            <Array as="points">
              <mxPoint x="810" y="290" />
              <mxPoint x="810" y="820" />
            </Array>
          </mxGeometry>
        </mxCell>
        <mxCell id="6P_JWeLP0QCUFUXHFIDF-25" value="F" style="edgeLabel;html=1;align=center;verticalAlign=middle;resizable=0;points=[];" vertex="1" connectable="0" parent="6P_JWeLP0QCUFUXHFIDF-22">
          <mxGeometry x="-0.7917" relative="1" as="geometry">
            <mxPoint as="offset" />
          </mxGeometry>
        </mxCell>
        <mxCell id="6P_JWeLP0QCUFUXHFIDF-3" value="enquanto(n != 0)" style="rounded=1;whiteSpace=wrap;html=1;absoluteArcSize=1;arcSize=14;strokeWidth=2;" vertex="1" parent="1">
          <mxGeometry x="310" y="270" width="180" height="40" as="geometry" />
        </mxCell>
        <mxCell id="6P_JWeLP0QCUFUXHFIDF-4" value="maioresQueCem = 0" style="shape=parallelogram;html=1;strokeWidth=2;perimeter=parallelogramPerimeter;whiteSpace=wrap;rounded=1;arcSize=12;size=0.23;" vertex="1" parent="1">
          <mxGeometry x="324" y="150" width="179" height="60" as="geometry" />
        </mxCell>
        <mxCell id="6P_JWeLP0QCUFUXHFIDF-6" style="edgeStyle=orthogonalEdgeStyle;rounded=0;orthogonalLoop=1;jettySize=auto;html=1;entryX=0.578;entryY=0.1;entryDx=0;entryDy=0;entryPerimeter=0;" edge="1" parent="1" source="6P_JWeLP0QCUFUXHFIDF-4" target="6P_JWeLP0QCUFUXHFIDF-3">
          <mxGeometry relative="1" as="geometry" />
        </mxCell>
        <mxCell id="6P_JWeLP0QCUFUXHFIDF-7" value="n" style="html=1;strokeWidth=2;shape=manualInput;whiteSpace=wrap;rounded=1;size=26;arcSize=11;" vertex="1" parent="1">
          <mxGeometry x="360" y="360" width="100" height="60" as="geometry" />
        </mxCell>
        <mxCell id="6P_JWeLP0QCUFUXHFIDF-8" style="edgeStyle=orthogonalEdgeStyle;rounded=0;orthogonalLoop=1;jettySize=auto;html=1;entryX=0.39;entryY=0.333;entryDx=0;entryDy=0;entryPerimeter=0;" edge="1" parent="1" source="6P_JWeLP0QCUFUXHFIDF-3" target="6P_JWeLP0QCUFUXHFIDF-7">
          <mxGeometry relative="1" as="geometry" />
        </mxCell>
        <mxCell id="6P_JWeLP0QCUFUXHFIDF-24" value="S" style="edgeLabel;html=1;align=center;verticalAlign=middle;resizable=0;points=[];" vertex="1" connectable="0" parent="6P_JWeLP0QCUFUXHFIDF-8">
          <mxGeometry x="-0.1547" relative="1" as="geometry">
            <mxPoint as="offset" />
          </mxGeometry>
        </mxCell>
        <mxCell id="6P_JWeLP0QCUFUXHFIDF-16" style="edgeStyle=orthogonalEdgeStyle;rounded=0;orthogonalLoop=1;jettySize=auto;html=1;entryX=0;entryY=0.5;entryDx=0;entryDy=0;" edge="1" parent="1" source="6P_JWeLP0QCUFUXHFIDF-9" target="6P_JWeLP0QCUFUXHFIDF-15">
          <mxGeometry relative="1" as="geometry" />
        </mxCell>
        <mxCell id="6P_JWeLP0QCUFUXHFIDF-20" value="V" style="edgeLabel;html=1;align=center;verticalAlign=middle;resizable=0;points=[];" vertex="1" connectable="0" parent="6P_JWeLP0QCUFUXHFIDF-16">
          <mxGeometry x="-0.275" y="1" relative="1" as="geometry">
            <mxPoint as="offset" />
          </mxGeometry>
        </mxCell>
        <mxCell id="6P_JWeLP0QCUFUXHFIDF-9" value="n &amp;gt; 100" style="strokeWidth=2;html=1;shape=mxgraph.flowchart.decision;whiteSpace=wrap;" vertex="1" parent="1">
          <mxGeometry x="350" y="485" width="100" height="100" as="geometry" />
        </mxCell>
        <mxCell id="6P_JWeLP0QCUFUXHFIDF-19" style="edgeStyle=orthogonalEdgeStyle;rounded=0;orthogonalLoop=1;jettySize=auto;html=1;entryX=0;entryY=0.5;entryDx=0;entryDy=0;" edge="1" parent="1" source="6P_JWeLP0QCUFUXHFIDF-10" target="6P_JWeLP0QCUFUXHFIDF-3">
          <mxGeometry relative="1" as="geometry">
            <Array as="points">
              <mxPoint x="402" y="760" />
              <mxPoint x="120" y="760" />
              <mxPoint x="120" y="290" />
            </Array>
          </mxGeometry>
        </mxCell>
        <mxCell id="6P_JWeLP0QCUFUXHFIDF-10" value="" style="strokeWidth=2;html=1;shape=mxgraph.flowchart.start_2;whiteSpace=wrap;" vertex="1" parent="1">
          <mxGeometry x="382" y="670" width="40" height="40" as="geometry" />
        </mxCell>
        <mxCell id="6P_JWeLP0QCUFUXHFIDF-12" style="edgeStyle=orthogonalEdgeStyle;rounded=0;orthogonalLoop=1;jettySize=auto;html=1;" edge="1" parent="1" source="6P_JWeLP0QCUFUXHFIDF-11" target="6P_JWeLP0QCUFUXHFIDF-2">
          <mxGeometry relative="1" as="geometry" />
        </mxCell>
        <mxCell id="6P_JWeLP0QCUFUXHFIDF-11" value="maioresQueCem" style="strokeWidth=2;html=1;shape=mxgraph.flowchart.display;whiteSpace=wrap;" vertex="1" parent="1">
          <mxGeometry x="344" y="790" width="116" height="60" as="geometry" />
        </mxCell>
        <mxCell id="6P_JWeLP0QCUFUXHFIDF-14" style="edgeStyle=orthogonalEdgeStyle;rounded=0;orthogonalLoop=1;jettySize=auto;html=1;entryX=0.51;entryY=0.07;entryDx=0;entryDy=0;entryPerimeter=0;" edge="1" parent="1" source="6P_JWeLP0QCUFUXHFIDF-7" target="6P_JWeLP0QCUFUXHFIDF-9">
          <mxGeometry relative="1" as="geometry" />
        </mxCell>
        <mxCell id="6P_JWeLP0QCUFUXHFIDF-15" value="maioresQueCem = maioresQueCem&amp;nbsp;+ 1" style="rounded=1;whiteSpace=wrap;html=1;absoluteArcSize=1;arcSize=14;strokeWidth=2;" vertex="1" parent="1">
          <mxGeometry x="530" y="515" width="240" height="40" as="geometry" />
        </mxCell>
        <mxCell id="6P_JWeLP0QCUFUXHFIDF-17" style="edgeStyle=orthogonalEdgeStyle;rounded=0;orthogonalLoop=1;jettySize=auto;html=1;entryX=0;entryY=0.5;entryDx=0;entryDy=0;entryPerimeter=0;" edge="1" parent="1" source="6P_JWeLP0QCUFUXHFIDF-9" target="6P_JWeLP0QCUFUXHFIDF-10">
          <mxGeometry relative="1" as="geometry">
            <Array as="points">
              <mxPoint x="270" y="535" />
              <mxPoint x="270" y="690" />
            </Array>
          </mxGeometry>
        </mxCell>
        <mxCell id="6P_JWeLP0QCUFUXHFIDF-21" value="F" style="edgeLabel;html=1;align=center;verticalAlign=middle;resizable=0;points=[];" vertex="1" connectable="0" parent="6P_JWeLP0QCUFUXHFIDF-17">
          <mxGeometry x="-0.6888" y="1" relative="1" as="geometry">
            <mxPoint as="offset" />
          </mxGeometry>
        </mxCell>
        <mxCell id="6P_JWeLP0QCUFUXHFIDF-18" style="edgeStyle=orthogonalEdgeStyle;rounded=0;orthogonalLoop=1;jettySize=auto;html=1;entryX=1;entryY=0.5;entryDx=0;entryDy=0;entryPerimeter=0;" edge="1" parent="1" source="6P_JWeLP0QCUFUXHFIDF-15" target="6P_JWeLP0QCUFUXHFIDF-10">
          <mxGeometry relative="1" as="geometry">
            <Array as="points">
              <mxPoint x="650" y="690" />
            </Array>
          </mxGeometry>
        </mxCell>
        <mxCell id="6P_JWeLP0QCUFUXHFIDF-23" style="edgeStyle=orthogonalEdgeStyle;rounded=0;orthogonalLoop=1;jettySize=auto;html=1;entryX=0.5;entryY=0;entryDx=0;entryDy=0;entryPerimeter=0;" edge="1" parent="1" source="6P_JWeLP0QCUFUXHFIDF-10" target="6P_JWeLP0QCUFUXHFIDF-11">
          <mxGeometry relative="1" as="geometry" />
        </mxCell>
      </root>
    </mxGraphModel>
  </diagram>
</mxfile>
